<svg width="72" height="80" viewBox="0 0 72 80" fill="none" xmlns="http://www.w3.org/2000/svg">
<path d="M0 19.4137L35.8183 0L71.6366 19.4137V60.1825L35.8183 79.5963L0 60.1825V19.4137Z" fill="black"/>
<path d="M15.3884 43.2435C15.3033 44.9735 15.5742 46.7186 16.2785 48.3583C16.441 48.7419 16.6345 49.1105 16.8434 49.4715C16.9286 49.622 17.0137 49.7649 17.1066 49.9153C17.2227 50.0958 17.3388 50.2764 17.4626 50.4494C17.7644 50.8856 18.0817 51.2993 18.43 51.698C20.1327 53.6386 22.3848 55.1504 24.7918 56.1132C25.202 56.2787 25.6121 56.4216 26.0301 56.5645C26.2003 56.6247 26.3783 56.6698 26.5563 56.7225C26.7963 56.7977 27.0362 56.8729 27.2838 56.9331C27.5083 56.9933 27.7327 57.0459 27.9572 57.0986C28.1507 57.1437 28.3519 57.1888 28.5454 57.234C28.7853 57.2866 29.0329 57.3317 29.2806 57.3769C29.389 57.3994 29.4896 57.422 29.5979 57.4371C29.6521 57.4446 29.7063 57.4521 29.7604 57.4596C31.7495 57.7906 33.7849 57.9109 35.8126 57.8884C37.8404 57.9109 39.8758 57.7906 41.8648 57.4596C41.919 57.4521 41.9732 57.4446 42.0274 57.4371C42.1357 57.422 42.2363 57.3919 42.3447 57.3769C42.5923 57.3317 42.8323 57.2866 43.0799 57.234C43.2811 57.1888 43.4746 57.1437 43.6681 57.0986C43.8925 57.0459 44.117 56.9933 44.3414 56.9331C44.5814 56.8654 44.8213 56.7977 45.0689 56.7225C45.2469 56.6698 45.4172 56.6247 45.5952 56.5645C46.0131 56.4291 46.4311 56.2787 46.8335 56.1132C49.2405 55.1504 51.4926 53.6461 53.1953 51.698C53.5435 51.2993 53.8686 50.8856 54.1627 50.4494C54.2865 50.2764 54.4026 50.0958 54.5187 49.9153C54.6116 49.7724 54.6967 49.622 54.7818 49.4791C54.9831 49.118 55.1766 48.7494 55.3468 48.3658C56.0511 46.7261 56.3297 44.9811 56.2446 43.2511H15.3884V43.2435Z" fill="#F5A811"/>
<path d="M56.1539 42.1966C55.8753 40.1281 55.0859 38.1123 53.8631 36.3672C53.4916 35.8332 53.0891 35.3292 52.6712 34.8253C52.6015 34.7425 52.5319 34.6598 52.4622 34.5771C50.2488 31.9821 47.54 29.8007 45.0402 27.4841C41.9676 24.6408 38.8951 22.7176 35.8148 19.8668C32.7346 22.7176 29.662 24.6408 26.5818 27.4916C24.0819 29.8083 21.3732 31.9896 19.1597 34.5846C19.09 34.6673 19.0204 34.7501 18.9507 34.8328C18.5328 35.3292 18.1304 35.8407 17.7589 36.3747C16.389 38.3304 15.5609 40.6396 15.3906 42.9788C15.3906 43.0691 15.3906 43.1594 15.3906 43.2496H56.2468C56.2313 42.8961 56.2004 42.5501 56.1539 42.2041V42.1966Z" fill="#A84C25"/>
</svg>
