<svg width="429" height="80" viewBox="0 0 429 80" fill="none" xmlns="http://www.w3.org/2000/svg">
<path d="M0 19.4137L35.8183 0L71.6366 19.4137V60.1825L35.8183 79.5963L0 60.1825V19.4137Z" fill="black"/>
<path d="M15.3884 43.2435C15.3033 44.9735 15.5742 46.7186 16.2785 48.3583C16.441 48.7419 16.6345 49.1105 16.8434 49.4715C16.9286 49.622 17.0137 49.7649 17.1066 49.9153C17.2227 50.0958 17.3388 50.2764 17.4626 50.4494C17.7644 50.8856 18.0817 51.2993 18.43 51.698C20.1327 53.6386 22.3848 55.1504 24.7918 56.1132C25.202 56.2787 25.6121 56.4216 26.0301 56.5645C26.2003 56.6247 26.3783 56.6698 26.5563 56.7225C26.7963 56.7977 27.0362 56.8729 27.2838 56.9331C27.5083 56.9933 27.7327 57.0459 27.9572 57.0986C28.1507 57.1437 28.3519 57.1888 28.5454 57.234C28.7853 57.2866 29.0329 57.3317 29.2806 57.3769C29.389 57.3994 29.4896 57.422 29.5979 57.4371C29.6521 57.4446 29.7063 57.4521 29.7604 57.4596C31.7495 57.7906 33.7849 57.9109 35.8126 57.8884C37.8404 57.9109 39.8758 57.7906 41.8648 57.4596C41.919 57.4521 41.9732 57.4446 42.0274 57.4371C42.1357 57.422 42.2363 57.3919 42.3447 57.3769C42.5923 57.3317 42.8323 57.2866 43.0799 57.234C43.2811 57.1888 43.4746 57.1437 43.6681 57.0986C43.8925 57.0459 44.117 56.9933 44.3414 56.9331C44.5814 56.8654 44.8213 56.7977 45.0689 56.7225C45.2469 56.6698 45.4172 56.6247 45.5952 56.5645C46.0131 56.4291 46.4311 56.2787 46.8335 56.1132C49.2405 55.1504 51.4926 53.6461 53.1953 51.698C53.5435 51.2993 53.8686 50.8856 54.1627 50.4494C54.2865 50.2764 54.4026 50.0958 54.5187 49.9153C54.6116 49.7724 54.6967 49.622 54.7818 49.4791C54.9831 49.118 55.1766 48.7494 55.3468 48.3658C56.0511 46.7261 56.3297 44.9811 56.2446 43.2511H15.3884V43.2435Z" fill="#F5A811"/>
<path d="M56.1539 42.1966C55.8753 40.1281 55.0859 38.1123 53.8631 36.3672C53.4916 35.8332 53.0891 35.3292 52.6712 34.8253C52.6015 34.7425 52.5319 34.6598 52.4622 34.5771C50.2488 31.9821 47.54 29.8007 45.0402 27.4841C41.9676 24.6408 38.8951 22.7176 35.8148 19.8668C32.7346 22.7176 29.662 24.6408 26.5818 27.4916C24.0819 29.8083 21.3732 31.9896 19.1597 34.5846C19.09 34.6673 19.0204 34.7501 18.9507 34.8328C18.5328 35.3292 18.1304 35.8407 17.7589 36.3747C16.389 38.3304 15.5609 40.6396 15.3906 42.9788C15.3906 43.0691 15.3906 43.1594 15.3906 43.2496H56.2468C56.2313 42.8961 56.2004 42.5501 56.1539 42.2041V42.1966Z" fill="#A84C25"/>
<path opacity="0.8" d="M428.883 53.4614V59H407.369V53.4614H428.883ZM409.345 18.4766V59H402.359V18.4766H409.345ZM426.072 35.3984V40.8535H407.369V35.3984H426.072ZM428.744 18.4766V24.043H407.369V18.4766H428.744Z" fill="black"/>
<path opacity="0.8" d="M366.706 18.4766H381.04C384.12 18.4766 386.745 18.9404 388.916 19.8682C391.087 20.7959 392.748 22.1689 393.898 23.9873C395.067 25.7871 395.651 28.0137 395.651 30.667C395.651 32.6895 395.28 34.4707 394.538 36.0107C393.796 37.5508 392.748 38.8496 391.393 39.9072C390.039 40.9463 388.424 41.7534 386.55 42.3286L384.435 43.3584H371.549L371.493 37.8198H381.151C382.821 37.8198 384.212 37.5229 385.326 36.9292C386.439 36.3354 387.274 35.5283 387.831 34.5078C388.406 33.4688 388.693 32.2998 388.693 31.001C388.693 29.5908 388.415 28.3662 387.858 27.3271C387.32 26.2695 386.485 25.4624 385.354 24.9058C384.222 24.3306 382.784 24.043 381.04 24.043H373.692V59H366.706V18.4766ZM389.834 59L380.316 40.7979L387.636 40.77L397.293 58.6382V59H389.834Z" fill="black"/>
<path opacity="0.8" d="M359.97 37.625V39.8516C359.97 42.9131 359.571 45.6592 358.773 48.0898C357.976 50.5205 356.834 52.5894 355.35 54.2964C353.884 56.0034 352.122 57.3115 350.062 58.2207C348.002 59.1113 345.72 59.5566 343.215 59.5566C340.729 59.5566 338.456 59.1113 336.396 58.2207C334.355 57.3115 332.583 56.0034 331.081 54.2964C329.578 52.5894 328.409 50.5205 327.574 48.0898C326.757 45.6592 326.349 42.9131 326.349 39.8516V37.625C326.349 34.5635 326.757 31.8267 327.574 29.4146C328.39 26.9839 329.541 24.915 331.025 23.208C332.528 21.4824 334.3 20.1743 336.341 19.2837C338.4 18.3745 340.673 17.9199 343.16 17.9199C345.665 17.9199 347.947 18.3745 350.006 19.2837C352.066 20.1743 353.838 21.4824 355.322 23.208C356.807 24.915 357.948 26.9839 358.746 29.4146C359.562 31.8267 359.97 34.5635 359.97 37.625ZM352.984 39.8516V37.5693C352.984 35.3057 352.762 33.311 352.316 31.5854C351.89 29.8413 351.25 28.3848 350.396 27.2158C349.561 26.0283 348.531 25.1377 347.307 24.5439C346.082 23.9316 344.7 23.6255 343.16 23.6255C341.62 23.6255 340.247 23.9316 339.041 24.5439C337.834 25.1377 336.805 26.0283 335.951 27.2158C335.116 28.3848 334.476 29.8413 334.031 31.5854C333.585 33.311 333.363 35.3057 333.363 37.5693V39.8516C333.363 42.1152 333.585 44.1191 334.031 45.8633C334.476 47.6074 335.125 49.0825 335.979 50.2886C336.851 51.4761 337.89 52.376 339.096 52.9883C340.302 53.582 341.675 53.8789 343.215 53.8789C344.774 53.8789 346.156 53.582 347.362 52.9883C348.568 52.376 349.589 51.4761 350.424 50.2886C351.259 49.0825 351.89 47.6074 352.316 45.8633C352.762 44.1191 352.984 42.1152 352.984 39.8516Z" fill="black"/>
<path opacity="0.8" d="M310.624 18.4766V59H303.693V18.4766H310.624ZM323.343 18.4766V24.043H291.085V18.4766H323.343Z" fill="black"/>
<path opacity="0.8" d="M281.01 48.563C281.01 47.728 280.88 46.9858 280.62 46.3364C280.379 45.687 279.943 45.0933 279.312 44.5552C278.681 44.0171 277.791 43.4976 276.64 42.9966C275.508 42.4771 274.061 41.9482 272.298 41.4102C270.369 40.8164 268.587 40.1577 266.955 39.4341C265.34 38.6919 263.93 37.8384 262.724 36.8735C261.518 35.8901 260.581 34.7676 259.913 33.5059C259.245 32.2256 258.911 30.7505 258.911 29.0806C258.911 27.4292 259.254 25.9263 259.941 24.5718C260.646 23.2173 261.639 22.0483 262.919 21.0649C264.218 20.063 265.749 19.293 267.511 18.7549C269.274 18.1982 271.222 17.9199 273.356 17.9199C276.362 17.9199 278.95 18.4766 281.121 19.5898C283.311 20.7031 284.99 22.1968 286.159 24.0708C287.346 25.9448 287.94 28.0137 287.94 30.2773H281.01C281.01 28.9414 280.722 27.7632 280.147 26.7427C279.59 25.7036 278.737 24.8872 277.586 24.2935C276.455 23.6997 275.017 23.4028 273.272 23.4028C271.621 23.4028 270.248 23.6533 269.153 24.1543C268.059 24.6553 267.242 25.3325 266.704 26.186C266.166 27.0396 265.897 28.0044 265.897 29.0806C265.897 29.8413 266.073 30.5371 266.426 31.168C266.778 31.7803 267.316 32.3555 268.04 32.8936C268.764 33.4131 269.673 33.9048 270.768 34.3687C271.862 34.8325 273.152 35.2778 274.636 35.7046C276.881 36.3726 278.839 37.1147 280.509 37.9312C282.179 38.729 283.57 39.6382 284.684 40.6587C285.797 41.6792 286.632 42.8389 287.188 44.1377C287.745 45.418 288.023 46.8745 288.023 48.5073C288.023 50.2144 287.68 51.7544 286.994 53.1274C286.307 54.4819 285.324 55.6416 284.043 56.6064C282.782 57.5527 281.26 58.2856 279.479 58.8052C277.716 59.3062 275.75 59.5566 273.579 59.5566C271.63 59.5566 269.71 59.2969 267.817 58.7773C265.943 58.2578 264.236 57.4692 262.696 56.4116C261.156 55.3354 259.932 53.9995 259.022 52.4038C258.113 50.7896 257.659 48.9062 257.659 46.7539H264.645C264.645 48.0713 264.867 49.1938 265.312 50.1216C265.776 51.0493 266.417 51.8101 267.233 52.4038C268.049 52.979 268.996 53.4058 270.072 53.6841C271.167 53.9624 272.335 54.1016 273.579 54.1016C275.211 54.1016 276.575 53.8696 277.67 53.4058C278.783 52.9419 279.618 52.2925 280.175 51.4575C280.731 50.6226 281.01 49.6577 281.01 48.563Z" fill="black"/>
<path opacity="0.8" d="M216.967 18.4766V59H209.981V18.4766H216.967ZM241.32 18.4766L224.899 37.9868L215.548 47.895L214.323 40.9648L221.003 32.7266L232.804 18.4766H241.32ZM233.806 59L220.474 39.7959L225.289 35.0366L242.1 59H233.806Z" fill="black"/>
<path opacity="0.8" d="M203.246 37.625V39.8516C203.246 42.9131 202.847 45.6592 202.049 48.0898C201.251 50.5205 200.11 52.5894 198.625 54.2964C197.16 56.0034 195.397 57.3115 193.337 58.2207C191.278 59.1113 188.996 59.5566 186.491 59.5566C184.004 59.5566 181.731 59.1113 179.672 58.2207C177.631 57.3115 175.859 56.0034 174.356 54.2964C172.853 52.5894 171.684 50.5205 170.849 48.0898C170.033 45.6592 169.625 42.9131 169.625 39.8516V37.625C169.625 34.5635 170.033 31.8267 170.849 29.4146C171.666 26.9839 172.816 24.915 174.3 23.208C175.803 21.4824 177.575 20.1743 179.616 19.2837C181.676 18.3745 183.949 17.9199 186.435 17.9199C188.94 17.9199 191.222 18.3745 193.282 19.2837C195.341 20.1743 197.113 21.4824 198.598 23.208C200.082 24.915 201.223 26.9839 202.021 29.4146C202.837 31.8267 203.246 34.5635 203.246 37.625ZM196.26 39.8516V37.5693C196.26 35.3057 196.037 33.311 195.592 31.5854C195.165 29.8413 194.525 28.3848 193.671 27.2158C192.836 26.0283 191.807 25.1377 190.582 24.5439C189.357 23.9316 187.975 23.6255 186.435 23.6255C184.895 23.6255 183.522 23.9316 182.316 24.5439C181.11 25.1377 180.08 26.0283 179.227 27.2158C178.392 28.3848 177.751 29.8413 177.306 31.5854C176.861 33.311 176.638 35.3057 176.638 37.5693V39.8516C176.638 42.1152 176.861 44.1191 177.306 45.8633C177.751 47.6074 178.401 49.0825 179.254 50.2886C180.126 51.4761 181.166 52.376 182.372 52.9883C183.578 53.582 184.951 53.8789 186.491 53.8789C188.049 53.8789 189.432 53.582 190.638 52.9883C191.844 52.376 192.864 51.4761 193.699 50.2886C194.534 49.0825 195.165 47.6074 195.592 45.8633C196.037 44.1191 196.26 42.1152 196.26 39.8516Z" fill="black"/>
<path opacity="0.8" d="M164.197 37.625V39.8516C164.197 42.9131 163.798 45.6592 163 48.0898C162.202 50.5205 161.061 52.5894 159.577 54.2964C158.111 56.0034 156.348 57.3115 154.289 58.2207C152.229 59.1113 149.947 59.5566 147.442 59.5566C144.956 59.5566 142.683 59.1113 140.623 58.2207C138.582 57.3115 136.81 56.0034 135.307 54.2964C133.804 52.5894 132.635 50.5205 131.8 48.0898C130.984 45.6592 130.576 42.9131 130.576 39.8516V37.625C130.576 34.5635 130.984 31.8267 131.8 29.4146C132.617 26.9839 133.767 24.915 135.251 23.208C136.754 21.4824 138.526 20.1743 140.567 19.2837C142.627 18.3745 144.9 17.9199 147.386 17.9199C149.891 17.9199 152.173 18.3745 154.233 19.2837C156.292 20.1743 158.064 21.4824 159.549 23.208C161.033 24.915 162.174 26.9839 162.972 29.4146C163.789 31.8267 164.197 34.5635 164.197 37.625ZM157.211 39.8516V37.5693C157.211 35.3057 156.988 33.311 156.543 31.5854C156.116 29.8413 155.476 28.3848 154.623 27.2158C153.788 26.0283 152.758 25.1377 151.533 24.5439C150.309 23.9316 148.926 23.6255 147.386 23.6255C145.846 23.6255 144.473 23.9316 143.267 24.5439C142.061 25.1377 141.031 26.0283 140.178 27.2158C139.343 28.3848 138.703 29.8413 138.257 31.5854C137.812 33.311 137.589 35.3057 137.589 37.5693V39.8516C137.589 42.1152 137.812 44.1191 138.257 45.8633C138.703 47.6074 139.352 49.0825 140.206 50.2886C141.078 51.4761 142.117 52.376 143.323 52.9883C144.529 53.582 145.902 53.8789 147.442 53.8789C149 53.8789 150.383 53.582 151.589 52.9883C152.795 52.376 153.815 51.4761 154.65 50.2886C155.485 49.0825 156.116 47.6074 156.543 45.8633C156.988 44.1191 157.211 42.1152 157.211 39.8516Z" fill="black"/>
<path opacity="0.8" d="M111.315 40.6865H100.99L100.934 35.5933H109.952C111.473 35.5933 112.763 35.3706 113.82 34.9253C114.896 34.4614 115.713 33.8027 116.27 32.9492C116.826 32.0771 117.104 31.0288 117.104 29.8042C117.104 28.4497 116.845 27.3457 116.325 26.4922C115.806 25.6387 115.008 25.0171 113.932 24.6274C112.874 24.2378 111.52 24.043 109.868 24.043H103.105V59H96.1191V18.4766H109.868C112.095 18.4766 114.08 18.6899 115.824 19.1167C117.587 19.5435 119.081 20.2114 120.305 21.1206C121.548 22.0112 122.485 23.1431 123.116 24.5161C123.766 25.8892 124.09 27.522 124.09 29.4146C124.09 31.0845 123.691 32.6152 122.894 34.0068C122.096 35.3799 120.917 36.5024 119.359 37.3745C117.8 38.2466 115.861 38.7661 113.542 38.9331L111.315 40.6865ZM111.009 59H98.791L101.936 53.4614H111.009C112.586 53.4614 113.904 53.2017 114.961 52.6821C116.019 52.144 116.808 51.4111 117.327 50.4834C117.865 49.5371 118.134 48.4331 118.134 47.1714C118.134 45.854 117.902 44.7129 117.438 43.748C116.975 42.7646 116.242 42.0132 115.24 41.4937C114.238 40.9556 112.93 40.6865 111.315 40.6865H103.467L103.522 35.5933H113.737L115.323 37.5137C117.55 37.5879 119.377 38.0796 120.806 38.9888C122.253 39.8979 123.33 41.0762 124.035 42.5234C124.74 43.9707 125.092 45.5293 125.092 47.1992C125.092 49.7783 124.526 51.9399 123.395 53.6841C122.281 55.4282 120.676 56.7549 118.58 57.6641C116.483 58.5547 113.959 59 111.009 59Z" fill="black"/>
</svg>
